# xmcd
#
# Track frame offsets:
#      150
#      12191
#      26556
#      38158
#      52971
#      65672
# 
# Disc length: 1003 seconds
#
# Revision: 4
# Processed by: cddbd v1.4PL0 Copyright (c) Steve Scherf et al.
#
# Submitted via: FreeRIP 1.21
#
DISCID=4503e906
DTITLE=Same Old Story - Same Old Story
DYEAR=2003
DGENRE=Punk
TTITLE0=it's too late
TTITLE1=routine
TTITLE2=03
TTITLE3=sun never sets
TTITLE4=on my own
TTITLE5=imitation
EXTD=
EXTT0=
EXTT1=
EXTT2=
EXTT3=
EXTT4=
EXTT5=
PLAYORDER=
